<?xml version="1.0" encoding="UTF-8"?>
<svg id="Camada_1" data-name="Camada 1" xmlns="http://www.w3.org/2000/svg" version="1.1" viewBox="0 0 800 800">
  <defs>
    <style>
      .cls-1 {
        fill: #fff;
      }

      .cls-1, .cls-2 {
        stroke-width: 0px;
      }

      .cls-2 {
        fill: #008c50;
      }
    </style>
  </defs>
  <rect class="cls-2" width="800" height="800"/>
  <path class="cls-1" d="M168.6,582.8h115.9c6.8,0,10.4-2.1,14.1-6.8l75.2-102.1c1.6-2.1,3.1-4.7,3.1-7.3s-3.7-5.8-9.9-5.8h-43.3c-6.8,0-10.4-3.1-10.4-7.3s1.6-5.2,3.1-7.3l68.9-92.6c1.6-2.1,3.1-4.7,3.1-7.3,0-4.2-3.7-7.3-10.4-7.3h-51.3c-6.8,0-10.4-2.6-10.4-6.8s1.6-5.8,3.1-7.8l66.9-89c3.7-4.7,8.9-6.3,13.6-6.3s9.9,1.6,13.6,6.3l66.9,89c1.6,2.1,3.1,5.2,3.1,7.8,0,4.2-3.7,6.8-10.4,6.8h-51.3c-6.8,0-10.4,3.1-10.4,7.3s1.6,5.2,3.1,7.3l68.9,92.6c1.6,2.1,3.1,4.7,3.1,7.3,0,4.2-3.7,7.3-10.4,7.3h-43.3c-6.3,0-9.9,2.1-9.9,5.8s1.6,5.2,3.1,7.3l75.2,102.1c3.7,4.7,7.8,6.8,14.1,6.8h115.9c8.3,0,13.1-3.1,13.1-8.3s-1.6-6.3-3.1-8.3l-67.9-92.2c-1.6-2.1-3.1-4.7-3.1-7.3s3.7-5.8,9.9-5.8h81.5c8.3,0,12.5-3.1,12.5-8.3s-1.6-6.3-3.1-8.3l-166.6-220.7c-3.1-4.2-6.3-6.3-13.6-6.3h-187c-4.7,0-9.9,1-13.6,6.3l-161.4,220.7c-2.1,3.1-3.1,5.8-3.1,8.3,0,5.2,4.2,8.3,12.5,8.3h81.5c6.3,0,9.9,2.1,9.9,5.8s-1.6,5.2-3.1,7.3l-67.9,92.2c-1.6,2.1-3.1,5.2-3.1,8.3,0,5.2,4.7,8.3,13.1,8.3h0Z"/>
</svg>